<svg xmlns="http://www.w3.org/2000/svg" xmlns:xlink="http://www.w3.org/1999/xlink" width="600" zoomAndPan="magnify" viewBox="0 0 450 112.499997" height="150" preserveAspectRatio="xMidYMid meet" version="1.0"><defs><g/><clipPath id="f41b60498e"><path d="M 0.996094 0 L 449.003906 0 L 449.003906 112.003906 L 0.996094 112.003906 Z M 0.996094 0 " clip-rule="nonzero"/></clipPath><clipPath id="6c1a1d5e7d"><path d="M 4 6 L 92 6 L 92 112.003906 L 4 112.003906 Z M 4 6 " clip-rule="nonzero"/></clipPath><clipPath id="0f145685f3"><path d="M 144 9.574219 L 243 9.574219 L 243 88 L 144 88 Z M 144 9.574219 " clip-rule="nonzero"/></clipPath><clipPath id="0040c3e8e5"><path d="M 142 55 L 242 55 L 242 112.003906 L 142 112.003906 Z M 142 55 " clip-rule="nonzero"/></clipPath></defs><g clip-path="url(#f41b60498e)"><path fill="#ffffff" d="M 0.996094 0 L 449.003906 0 L 449.003906 112.003906 L 0.996094 112.003906 Z M 0.996094 0 " fill-opacity="1" fill-rule="nonzero"/><path fill="#ffffff" d="M 0.996094 0 L 449.003906 0 L 449.003906 112.003906 L 0.996094 112.003906 Z M 0.996094 0 " fill-opacity="1" fill-rule="nonzero"/></g><g clip-path="url(#6c1a1d5e7d)"><g fill="#9c9e9f" fill-opacity="1"><g transform="translate(0.247637, 110.715212)"><g><path d="M 68.515625 -76.828125 C 66.210938 -79.316406 63.648438 -81.273438 60.828125 -82.703125 C 58.015625 -84.140625 54.164062 -84.859375 49.28125 -84.859375 C 44.113281 -84.859375 40.210938 -84.003906 37.578125 -82.296875 C 34.953125 -80.585938 33.640625 -78.441406 33.640625 -75.859375 C 33.640625 -74.097656 34.375 -72.429688 35.84375 -70.859375 C 37.320312 -69.296875 39.910156 -68.054688 43.609375 -67.140625 L 66.03125 -61.046875 C 74.332031 -58.828125 80.554688 -55.132812 84.703125 -49.96875 C 88.859375 -44.800781 90.9375 -38.617188 90.9375 -31.421875 C 90.9375 -24.773438 89.207031 -18.984375 85.75 -14.046875 C 82.289062 -9.109375 77.332031 -5.300781 70.875 -2.625 C 64.414062 0.0507812 56.847656 1.390625 48.171875 1.390625 C 38.390625 1.390625 29.503906 -0.242188 21.515625 -3.515625 C 13.535156 -6.796875 7.882812 -11.207031 4.5625 -16.75 C 4.101562 -17.675781 3.875 -18.367188 3.875 -18.828125 C 3.875 -19.566406 4.382812 -20.304688 5.40625 -21.046875 L 17.859375 -29.625 C 18.867188 -30.269531 19.742188 -30.59375 20.484375 -30.59375 C 21.410156 -30.59375 22.148438 -30.222656 22.703125 -29.484375 C 26.023438 -25.234375 29.367188 -22.234375 32.734375 -20.484375 C 36.109375 -18.734375 40.5625 -17.859375 46.09375 -17.859375 C 51.71875 -17.859375 56.164062 -18.6875 59.4375 -20.34375 C 62.71875 -22.007812 64.359375 -24.410156 64.359375 -27.546875 C 64.359375 -31.785156 60.992188 -34.832031 54.265625 -36.6875 L 33.21875 -42.21875 C 25.101562 -44.34375 18.738281 -48.101562 14.125 -53.5 C 9.507812 -58.894531 7.203125 -65.101562 7.203125 -72.125 C 7.203125 -78.113281 8.90625 -83.53125 12.3125 -88.375 C 15.726562 -93.226562 20.550781 -97.0625 26.78125 -99.875 C 33.007812 -102.6875 40.234375 -104.09375 48.453125 -104.09375 C 56.390625 -104.09375 63.769531 -102.753906 70.59375 -100.078125 C 77.425781 -97.398438 82.503906 -93.847656 85.828125 -89.421875 C 86.472656 -88.316406 86.796875 -87.53125 86.796875 -87.0625 C 86.796875 -86.601562 86.472656 -86.097656 85.828125 -85.546875 L 72.25 -75.71875 C 71.882812 -75.34375 71.472656 -75.15625 71.015625 -75.15625 C 70.460938 -75.15625 69.628906 -75.710938 68.515625 -76.828125 Z M 68.515625 -76.828125 "/></g></g></g></g><g fill="#9c9e9f" fill-opacity="1"><g transform="translate(94.226807, 110.715212)"><g><path d="M 34.046875 -102.703125 C 35.617188 -102.703125 36.40625 -101.828125 36.40625 -100.078125 L 36.40625 -3.734375 C 36.40625 -2.347656 36.082031 -1.378906 35.4375 -0.828125 C 34.789062 -0.273438 33.726562 0 32.25 0 L 11.765625 0 C 10.472656 0 9.59375 -0.25 9.125 -0.75 C 8.664062 -1.257812 8.4375 -2.070312 8.4375 -3.1875 L 8.4375 -99.796875 C 8.4375 -100.722656 8.644531 -101.4375 9.0625 -101.9375 C 9.476562 -102.445312 10.054688 -102.703125 10.796875 -102.703125 Z M 34.046875 -102.703125 "/></g></g></g><g fill="#9c9e9f" fill-opacity="1"><g transform="translate(137.410774, 110.715212)"><g/></g></g><g fill="#9c9e9f" fill-opacity="1"><g transform="translate(163.985026, 110.715212)"><g/></g></g><g fill="#9c9e9f" fill-opacity="1"><g transform="translate(190.559278, 110.715212)"><g/></g></g><g fill="#9c9e9f" fill-opacity="1"><g transform="translate(217.133531, 110.715212)"><g/></g></g><g fill="#9c9e9f" fill-opacity="1"><g transform="translate(243.707853, 110.715212)"><g><path d="M 6.234375 0 C 5.492188 0 4.914062 -0.226562 4.5 -0.6875 C 4.082031 -1.15625 3.875 -1.800781 3.875 -2.625 C 3.875 -3.269531 4.015625 -3.914062 4.296875 -4.5625 L 38.34375 -99.796875 C 38.707031 -100.910156 39.164062 -101.671875 39.71875 -102.078125 C 40.28125 -102.492188 41.113281 -102.703125 42.21875 -102.703125 L 66.296875 -102.703125 C 68.515625 -102.703125 70.085938 -101.550781 71.015625 -99.25 L 104.640625 -4.296875 C 104.734375 -4.015625 104.78125 -3.550781 104.78125 -2.90625 C 104.78125 -2.070312 104.617188 -1.378906 104.296875 -0.828125 C 103.972656 -0.273438 103.488281 0 102.84375 0 L 78.90625 0 C 77.425781 0 76.457031 -0.738281 76 -2.21875 L 69.90625 -20.203125 C 69.625 -20.765625 69.367188 -21.160156 69.140625 -21.390625 C 68.910156 -21.617188 68.472656 -21.734375 67.828125 -21.734375 L 36.40625 -21.734375 C 35.382812 -21.734375 34.738281 -21.222656 34.46875 -20.203125 L 27.96875 -1.9375 C 27.5 -0.644531 26.484375 0 24.921875 0 Z M 61.59375 -42.765625 C 62.519531 -42.765625 62.984375 -43.226562 62.984375 -44.15625 C 62.984375 -44.707031 62.9375 -45.125 62.84375 -45.40625 L 52.875 -73.21875 C 52.78125 -73.78125 52.503906 -74.0625 52.046875 -74.0625 C 51.679688 -74.0625 51.40625 -73.78125 51.21875 -73.21875 L 41.109375 -45.40625 C 40.921875 -45.03125 40.828125 -44.566406 40.828125 -44.015625 C 40.828125 -43.179688 41.382812 -42.765625 42.5 -42.765625 Z M 61.59375 -42.765625 "/></g></g></g><g fill="#97bf29" fill-opacity="1"><g transform="translate(350.848564, 110.715212)"><g><path d="M 38.34375 -42.359375 C 37.789062 -42.359375 37.328125 -42.195312 36.953125 -41.875 C 36.585938 -41.550781 36.40625 -41.113281 36.40625 -40.5625 L 36.40625 -3.59375 C 36.40625 -2.300781 36.082031 -1.378906 35.4375 -0.828125 C 34.789062 -0.273438 33.726562 0 32.25 0 L 11.765625 0 C 10.472656 0 9.59375 -0.25 9.125 -0.75 C 8.664062 -1.257812 8.4375 -2.070312 8.4375 -3.1875 L 8.4375 -99.796875 C 8.4375 -100.722656 8.644531 -101.4375 9.0625 -101.9375 C 9.476562 -102.445312 10.054688 -102.703125 10.796875 -102.703125 L 34.046875 -102.703125 C 34.785156 -102.703125 35.363281 -102.472656 35.78125 -102.015625 C 36.195312 -101.554688 36.40625 -100.910156 36.40625 -100.078125 L 36.40625 -66.296875 C 36.40625 -64.546875 37.144531 -63.671875 38.625 -63.671875 L 66.171875 -63.671875 C 67.640625 -63.671875 68.375 -64.546875 68.375 -66.296875 L 68.375 -100.078125 C 68.375 -100.910156 68.582031 -101.554688 69 -102.015625 C 69.414062 -102.472656 69.992188 -102.703125 70.734375 -102.703125 L 93.984375 -102.703125 C 94.722656 -102.703125 95.300781 -102.445312 95.71875 -101.9375 C 96.132812 -101.4375 96.34375 -100.722656 96.34375 -99.796875 L 96.34375 -3.1875 C 96.34375 -2.070312 96.109375 -1.257812 95.640625 -0.75 C 95.179688 -0.25 94.304688 0 93.015625 0 L 72.53125 0 C 71.050781 0 69.988281 -0.273438 69.34375 -0.828125 C 68.695312 -1.378906 68.375 -2.300781 68.375 -3.59375 L 68.375 -40.5625 C 68.375 -41.113281 68.210938 -41.550781 67.890625 -41.875 C 67.566406 -42.195312 67.082031 -42.359375 66.4375 -42.359375 Z M 38.34375 -42.359375 "/></g></g></g><g clip-path="url(#0f145685f3)"><path fill="#9c9e9f" d="M 180.765625 85.3125 C 178.726562 83.945312 177.222656 82.160156 176.234375 79.9375 C 175.136719 77.492188 174.550781 74.710938 174.460938 71.570312 C 174.371094 68.429688 174.640625 65.128906 175.269531 61.675781 C 176.253906 55.929688 177.804688 50.949219 179.871094 46.710938 C 181.953125 42.46875 184.578125 39.171875 187.722656 36.835938 C 190.863281 34.480469 194.519531 33.292969 198.695312 33.269531 C 202.820312 33.269531 206.097656 34.324219 208.542969 36.410156 C 210.96875 38.496094 212.402344 41.527344 212.828125 45.519531 L 242.980469 45.519531 C 243.03125 39.550781 242.085938 34.347656 240.175781 29.859375 C 238.292969 25.371094 235.554688 21.625 232.03125 18.617188 C 228.488281 15.609375 224.292969 13.34375 219.449219 11.84375 C 214.605469 10.339844 209.261719 9.574219 203.402344 9.574219 C 195.527344 9.597656 188.261719 10.878906 181.574219 13.390625 C 174.886719 15.878906 168.921875 19.449219 163.714844 24.070312 C 158.488281 28.691406 154.15625 34.210938 150.722656 40.585938 C 140.722656 59.03125 140.894531 86.484375 167.238281 87.390625 C 171.894531 87.550781 176.429688 86.769531 180.765625 85.3125 " fill-opacity="1" fill-rule="nonzero"/></g><g clip-path="url(#0040c3e8e5)"><path fill="#97bf29" d="M 241.996094 55.75 L 189.023438 55.75 L 207.894531 71.660156 C 178.515625 100.238281 150.527344 92.480469 142.824219 79.960938 C 143.519531 85.320312 145 89.96875 147.269531 93.9375 C 149.511719 97.910156 152.382812 101.207031 155.863281 103.808594 C 159.335938 106.433594 163.285156 108.386719 167.683594 109.6875 C 172.0625 110.96875 176.75 111.617188 181.730469 111.617188 C 197.324219 111.550781 212.5 104.03125 223.449219 93.089844 L 232.832031 112.40625 Z M 241.996094 55.75 " fill-opacity="1" fill-rule="nonzero"/></g></svg>